<?xml version="1.0" encoding="UTF-8"?> <svg xmlns="http://www.w3.org/2000/svg" width="49.421" height="49.421" viewBox="0 0 49.421 49.421"><g id="Grupo_160" data-name="Grupo 160" transform="translate(-166.667 -166.667)"><path id="Trazado_70" data-name="Trazado 70" d="M191.377,168.15a23.113,23.113,0,0,1,12.986,3.966,23.3,23.3,0,0,1,8.417,10.221,23.2,23.2,0,0,1-2.141,22.027,23.3,23.3,0,0,1-10.221,8.417,23.2,23.2,0,0,1-22.027-2.141,23.3,23.3,0,0,1-8.417-10.221,23.2,23.2,0,0,1,2.141-22.027,23.3,23.3,0,0,1,10.221-8.417,23.081,23.081,0,0,1,9.041-1.825m0-1.483a24.71,24.71,0,1,0,24.71,24.71,24.71,24.71,0,0,0-24.71-24.71" fill="#fff"></path><path id="Trazado_71" data-name="Trazado 71" d="M222.222,242.814a20.593,20.593,0,0,0,11.606,18.532l-9.823-26.912a20.511,20.511,0,0,0-1.783,8.38m34.493-1.038a10.845,10.845,0,0,0-1.7-5.679c-1.044-1.7-2.023-3.133-2.023-4.83a3.565,3.565,0,0,1,3.458-3.655c.091,0,.178.011.267.017a20.588,20.588,0,0,0-31.111,3.875c.483.015.939.025,1.325.025,2.153,0,5.488-.262,5.488-.262a.851.851,0,0,1,.132,1.7s-1.116.131-2.357.2l7.5,22.305L242.2,241.95l-3.208-8.79c-1.109-.065-2.16-.2-2.16-.2a.851.851,0,0,1,.131-1.7s3.4.262,5.423.262c2.153,0,5.489-.262,5.489-.262a.851.851,0,0,1,.131,1.7s-1.117.131-2.357.2l7.442,22.135,2.124-6.731a23.742,23.742,0,0,0,1.5-6.788m-13.54,2.84L237,262.568a20.6,20.6,0,0,0,12.656-.328,1.879,1.879,0,0,1-.148-.284Zm17.708-11.68a15.811,15.811,0,0,1,.138,2.117,19.437,19.437,0,0,1-1.566,7.375l-6.289,18.184a20.595,20.595,0,0,0,7.717-27.677" transform="translate(-51.437 -51.438)" fill="#fff"></path></g></svg> 